<svg width="32" height="32" viewBox="0 0 32 32" fill="none" xmlns="http://www.w3.org/2000/svg">
<circle cx="16" cy="16" r="16" fill="url(#paint0_linear_7932_1138)"/>
<path fill-rule="evenodd" clip-rule="evenodd" d="M9.99313 12.2491C10.204 11.8992 11.3666 10.6293 12.1951 10.6676C12.443 10.6888 12.6621 10.8381 12.8401 11.012H12.8408C13.2488 11.4118 14.4197 12.9207 14.4854 13.2384C14.6477 14.0175 13.7185 14.4666 14.0027 15.2519C14.7271 17.0244 15.9753 18.2725 17.7486 18.9961C18.5333 19.2809 18.9825 18.3526 19.7616 18.5141C20.0793 18.5805 21.5891 19.7506 21.9882 20.1593V20.1593C22.1615 20.3366 22.3121 20.5564 22.3326 20.8042C22.3635 21.6771 21.0146 22.8554 20.7517 23.006C20.1314 23.4503 19.3221 23.4421 18.3354 22.9834C15.5823 21.838 11.1824 17.5214 10.0157 14.6645C9.56931 13.6834 9.53918 12.8687 9.99313 12.2491Z" stroke="white" stroke-linecap="round" stroke-linejoin="round"/>
<path d="M17.71 10.8335C20.178 11.1075 22.1266 13.0542 22.404 15.5215" stroke="white" stroke-linecap="round" stroke-linejoin="round"/>
<path d="M17.71 13.1953C18.89 13.4253 19.812 14.3473 20.042 15.5273" stroke="white" stroke-linecap="round" stroke-linejoin="round"/>
<defs>
<linearGradient id="paint0_linear_7932_1138" x1="1.54839" y1="1.81818" x2="35.8145" y2="17.7432" gradientUnits="userSpaceOnUse">
<stop stop-color="#618967"/>
<stop offset="1" stop-color="#72A479"/>
</linearGradient>
</defs>
</svg>
